<svg xmlns="http://www.w3.org/2000/svg" viewBox="0 0 64 64" fill="#fff">
  <!-- Rabbit silhouette -->
  <path d="M20 8c-2 0-3 2-3 4l1 14c-6 3-10 9-10 16 0 8 6 14 14 15h20c8-1 14-7 14-15 0-7-4-13-10-16l1-14c0-2-1-4-3-4-3 0-5 3-5 6l-1 8h-12l-1-8c0-3-2-6-5-6z"/>
  <!-- Inner ears -->
  <path d="M21 14l1 10 3-1 1-8c0-1-1-2-2-2s-3 0-3 1z" fill="#fff" opacity=".5"/>
  <path d="M43 14l-1 10-3-1-1-8c0-1 1-2 2-2s3 0 3 1z" fill="#fff" opacity=".5"/>
  <!-- Eyes -->
  <circle cx="24" cy="40" r="3" fill="#111"/>
  <circle cx="40" cy="40" r="3" fill="#111"/>
  <!-- Nose -->
  <path d="M32 46l-2 3h4z" fill="#111"/>
</svg>
